<svg id="Layer_1" data-name="Layer 1" xmlns="http://www.w3.org/2000/svg" xmlns:xlink="http://www.w3.org/1999/xlink" viewBox="0 0 1616 1541.33"><defs><style>.cls-1{fill:url(#linear-gradient);}.cls-2{fill:url(#linear-gradient-2);}.cls-3{fill:url(#linear-gradient-3);}.cls-4{fill:url(#linear-gradient-4);}.cls-5{fill:url(#linear-gradient-5);}.cls-6{fill:url(#linear-gradient-6);}.cls-7,.cls-9{fill:url(#linear-gradient-7);}.cls-7,.cls-8{clip-rule:evenodd;}.cls-8{fill:none;}.cls-13,.cls-15,.cls-17,.cls-21,.cls-24,.cls-9{fill-rule:evenodd;}.cls-10{clip-path:url(#clip-path);}.cls-11{fill:url(#linear-gradient-9);}.cls-12{mask:url(#mask);}.cls-13{fill:url(#linear-gradient-10);}.cls-14{mask:url(#mask-2);}.cls-15{fill:url(#linear-gradient-11);}.cls-16{mask:url(#mask-3);}.cls-17{fill:#ecf955;}.cls-18{clip-path:url(#clip-path-2);}.cls-19{fill:url(#linear-gradient-12);}.cls-20{mask:url(#mask-4);}.cls-21{fill:#acbac9;}.cls-22{mask:url(#mask-5);}.cls-23{mask:url(#mask-6);}.cls-24{fill:#1c2a39;}</style><linearGradient id="linear-gradient" x1="1161.62" y1="2965.14" x2="1429.09" y2="1862.16" gradientTransform="translate(-536.79 -1006.74)" gradientUnits="userSpaceOnUse"><stop offset="0" stop-color="#fff"/><stop offset="1"/></linearGradient><linearGradient id="linear-gradient-2" x1="2157.18" y1="551.93" x2="1387.87" y2="1884.34" gradientTransform="translate(-536.79 -1105.88)" xlink:href="#linear-gradient"/><linearGradient id="linear-gradient-3" x1="2218.84" y1="512.8" x2="1346.27" y2="2024.22" gradientTransform="translate(-527.57 -1088.09)" xlink:href="#linear-gradient"/><linearGradient id="linear-gradient-4" x1="1583.99" y1="471.31" x2="1025.1" y2="2180.77" gradientTransform="translate(-560.53 -1106.99)" xlink:href="#linear-gradient"/><linearGradient id="linear-gradient-5" x1="1359.7" y1="1076.57" x2="922.36" y2="1995.65" gradientTransform="translate(-618.14 -1128.77)" xlink:href="#linear-gradient"/><linearGradient id="linear-gradient-6" x1="458.41" y1="2916.15" x2="975.24" y2="1856.8" gradientTransform="translate(-618.14 -1088.09)" xlink:href="#linear-gradient"/><linearGradient id="linear-gradient-7" x1="540.03" y1="767.61" x2="1519.12" y2="767.61" gradientUnits="userSpaceOnUse"><stop offset="0" stop-color="#ffda50"/><stop offset="0.39" stop-color="#ff9b8a"/><stop offset="0.8" stop-color="#ff5ec4"/><stop offset="1" stop-color="#ff46da"/></linearGradient><clipPath id="clip-path"><path class="cls-7" d="M987.67,33.29H581.94A42,42,0,0,0,540,75.2V377.08a40.48,40.48,0,0,0,12.28,29.63L883.57,738a42,42,0,0,1,0,59.27L552.31,1128.5A40.44,40.44,0,0,0,540,1158.13V1460a42,42,0,0,0,41.91,41.91H987.67a42,42,0,0,0,41.91-41.91V1054.28a42,42,0,0,1,41.9-41.9h405.73a42,42,0,0,0,41.91-41.91V564.74a42,42,0,0,0-41.91-41.91H1071.48a42,42,0,0,1-41.91-41.9V75.2a42,42,0,0,0-41.91-41.91"/></clipPath><linearGradient id="linear-gradient-9" x1="396.35" y1="1534.99" x2="1482.66" y2="218.52" xlink:href="#linear-gradient-7"/><mask id="mask" x="540.03" y="1095.52" width="489.54" height="406.4" maskUnits="userSpaceOnUse"><rect class="cls-1" x="540.03" y="1095.52" width="489.54" height="406.4"/></mask><linearGradient id="linear-gradient-10" x1="540.03" y1="1298.72" x2="1029.58" y2="1298.72" gradientUnits="userSpaceOnUse"><stop offset="0" stop-color="#ffd746"/><stop offset="0.58" stop-color="#ffb04a"/><stop offset="1" stop-color="#ff984c"/></linearGradient><mask id="mask-2" x="540.03" y="33.29" width="979.09" height="872.06" maskUnits="userSpaceOnUse"><rect class="cls-2" x="540.03" y="33.29" width="979.09" height="872.06"/></mask><linearGradient id="linear-gradient-11" x1="540.03" y1="469.32" x2="1519.12" y2="469.32" xlink:href="#linear-gradient-10"/><mask id="mask-3" x="595.48" y="33.29" width="923.63" height="979.09" maskUnits="userSpaceOnUse"><rect class="cls-3" x="595.48" y="33.29" width="923.63" height="979.09"/></mask><clipPath id="clip-path-2"><path class="cls-8" d="M545.05,533.66,747.91,736.52l29.63,29.63-29.63,29.64L545.05,998.65a40.51,40.51,0,0,1-29.64,12.27H85.13A42,42,0,0,1,43.23,969V563.29a42,42,0,0,1,41.9-41.91H515.41a40.46,40.46,0,0,1,29.64,12.28"/></clipPath><linearGradient id="linear-gradient-12" x1="299.61" y1="1133.14" x2="493.72" y2="490.07" gradientUnits="userSpaceOnUse"><stop offset="0" stop-color="#3c4a59"/><stop offset="1" stop-color="#8c9aa9"/></linearGradient><mask id="mask-4" x="389.93" y="521.38" width="387.61" height="375.84" maskUnits="userSpaceOnUse"><rect class="cls-4" x="389.93" y="521.38" width="387.61" height="375.84"/></mask><mask id="mask-5" x="43.23" y="521.38" width="734.32" height="244.77" maskUnits="userSpaceOnUse"><rect class="cls-5" x="43.23" y="521.38" width="734.32" height="244.77"/></mask><mask id="mask-6" x="43.23" y="775.39" width="506.31" height="235.54" maskUnits="userSpaceOnUse"><rect class="cls-6" x="43.23" y="775.39" width="506.31" height="235.54"/></mask></defs><path class="cls-9" d="M987.67,33.29H581.94A42,42,0,0,0,540,75.2V377.08a40.48,40.48,0,0,0,12.28,29.63L883.57,738a42,42,0,0,1,0,59.27L552.31,1128.5A40.44,40.44,0,0,0,540,1158.13V1460a42,42,0,0,0,41.91,41.91H987.67a42,42,0,0,0,41.91-41.91V1054.28a42,42,0,0,1,41.9-41.9h405.73a42,42,0,0,0,41.91-41.91V564.74a42,42,0,0,0-41.91-41.91H1071.48a42,42,0,0,1-41.91-41.9V75.2a42,42,0,0,0-41.91-41.91"/><g class="cls-10"><rect class="cls-11" x="540.03" y="33.29" width="979.09" height="1468.63"/></g><g class="cls-12"><path class="cls-13" d="M585.28,1095.52l-33,33A40.44,40.44,0,0,0,540,1158.13V1460a42,42,0,0,0,41.91,41.91H987.67a42,42,0,0,0,41.91-41.91V1275.59c-189.16-55.49-333.84-117.37-444.3-180.07"/></g><g class="cls-14"><path class="cls-15" d="M987.67,33.29H581.94A42,42,0,0,0,540,75.2v284c431.53,130.51,787.44,387.2,979.09,546.18V564.74a42,42,0,0,0-41.91-41.91H1071.48a42,42,0,0,1-41.91-41.9V75.2a42,42,0,0,0-41.91-41.91"/></g><g class="cls-16"><path class="cls-17" d="M1464.67,1012.38h12.54a42,42,0,0,0,41.91-41.91V564.74a42,42,0,0,0-41.91-41.91H1234.83c98.34,132.11,180.87,293.41,229.84,489.55m-477-979.09H595.48C717.84,85.07,877.68,169.79,1029.57,302V75.2A42,42,0,0,0,987.67,33.29Z"/></g><g class="cls-18"><rect class="cls-19" x="43.23" y="521.38" width="734.32" height="489.54"/></g><g class="cls-20"><path class="cls-21" d="M545.05,533.66,747.91,736.52l29.63,29.63-29.63,29.64L646.48,897.22h0S595,680.54,389.93,521.38H515.41a40.46,40.46,0,0,1,29.64,12.28"/></g><g class="cls-22"><path class="cls-21" d="M545.05,533.66,747.91,736.52l29.63,29.63S418.65,590.93,43.23,664.69V563.29a42,42,0,0,1,41.9-41.91H515.41a40.46,40.46,0,0,1,29.64,12.28"/></g><g class="cls-23"><path class="cls-24" d="M549.54,994.16l-4.49,4.49a40.51,40.51,0,0,1-29.64,12.27H85.13A42,42,0,0,1,43.23,969V775.39c111.28,65.87,312.29,173.43,506.31,218.77"/></g></svg>