<svg id="Layer_1" data-name="Layer 1" xmlns="http://www.w3.org/2000/svg" xmlns:xlink="http://www.w3.org/1999/xlink" viewBox="0 0 1786.67 1717.33"><defs><style>.cls-1{fill:url(#linear-gradient);}.cls-2{fill:url(#linear-gradient-2);}.cls-3{fill:url(#linear-gradient-3);}.cls-4{fill:url(#linear-gradient-4);}.cls-5{fill:url(#linear-gradient-5);}.cls-6{fill:url(#linear-gradient-6);}.cls-7,.cls-9{fill:url(#linear-gradient-7);}.cls-7,.cls-8{clip-rule:evenodd;}.cls-8{fill:none;}.cls-13,.cls-15,.cls-17,.cls-21,.cls-24,.cls-9{fill-rule:evenodd;}.cls-10{clip-path:url(#clip-path);}.cls-11{fill:url(#linear-gradient-9);}.cls-12{mask:url(#mask);}.cls-13{fill:url(#linear-gradient-10);}.cls-14{mask:url(#mask-2);}.cls-15{fill:url(#linear-gradient-11);}.cls-16{mask:url(#mask-3);}.cls-17{fill:url(#linear-gradient-12);}.cls-18{clip-path:url(#clip-path-2);}.cls-19{fill:url(#linear-gradient-13);}.cls-20{mask:url(#mask-4);}.cls-21{fill:#acbac9;}.cls-22{mask:url(#mask-5);}.cls-23{mask:url(#mask-6);}.cls-24{fill:#1c2a39;}</style><linearGradient id="linear-gradient" x1="1282.08" y1="3157.64" x2="1561.62" y2="2004.93" gradientTransform="translate(-536.79 -1006.74)" gradientUnits="userSpaceOnUse"><stop offset="0" stop-color="#fff"/><stop offset="1"/></linearGradient><linearGradient id="linear-gradient-2" x1="2322.54" y1="631.14" x2="1518.54" y2="2023.64" gradientTransform="translate(-536.79 -1105.88)" xlink:href="#linear-gradient"/><linearGradient id="linear-gradient-3" x1="2387.39" y1="591.05" x2="1475.48" y2="2170.63" gradientTransform="translate(-527.57 -1088.09)" xlink:href="#linear-gradient"/><linearGradient id="linear-gradient-4" x1="1713.32" y1="546.84" x2="1129.23" y2="2333.38" gradientTransform="translate(-560.53 -1106.99)" xlink:href="#linear-gradient"/><linearGradient id="linear-gradient-5" x1="1476.32" y1="1178.41" x2="1019.26" y2="2138.94" gradientTransform="translate(-618.14 -1128.77)" xlink:href="#linear-gradient"/><linearGradient id="linear-gradient-6" x1="534.39" y1="3102.77" x2="1074.52" y2="1995.65" gradientTransform="translate(-618.14 -1088.09)" xlink:href="#linear-gradient"/><linearGradient id="linear-gradient-7" x1="656.67" y1="906.41" x2="1679.91" y2="906.41" gradientUnits="userSpaceOnUse"><stop offset="0" stop-color="#ffae46"/><stop offset="0.19" stop-color="#ff9755"/><stop offset="0.74" stop-color="#ff5a7d"/><stop offset="1" stop-color="#ff428d"/></linearGradient><clipPath id="clip-path"><path class="cls-7" d="M1124.49,139h-424a43.89,43.89,0,0,0-43.8,43.8V498.27a42.31,42.31,0,0,0,12.83,31l346.2,346.2a43.88,43.88,0,0,1,0,61.94l-346.2,346.2a42.31,42.31,0,0,0-12.83,31V1630a43.89,43.89,0,0,0,43.8,43.8h424a43.88,43.88,0,0,0,43.8-43.8V1206a43.88,43.88,0,0,1,43.8-43.8h424a43.88,43.88,0,0,0,43.8-43.8v-424a43.89,43.89,0,0,0-43.8-43.8h-424a43.88,43.88,0,0,1-43.8-43.79v-424a43.88,43.88,0,0,0-43.8-43.8"/></clipPath><linearGradient id="linear-gradient-9" x1="506.52" y1="1708.4" x2="1641.81" y2="332.57" xlink:href="#linear-gradient-7"/><mask id="mask" x="656.67" y="1249.12" width="511.62" height="424.72" maskUnits="userSpaceOnUse"><rect class="cls-1" x="656.67" y="1249.12" width="511.62" height="424.72"/></mask><linearGradient id="linear-gradient-10" x1="656.67" y1="1461.48" x2="1168.29" y2="1461.48" gradientUnits="userSpaceOnUse"><stop offset="0" stop-color="#2de4bf"/><stop offset="0.35" stop-color="#2fccb0"/><stop offset="1" stop-color="#339790"/></linearGradient><mask id="mask-2" x="656.67" y="138.98" width="1023.24" height="911.38" maskUnits="userSpaceOnUse"><rect class="cls-2" x="656.67" y="138.98" width="1023.24" height="911.38"/></mask><linearGradient id="linear-gradient-11" x1="656.67" y1="594.68" x2="1679.91" y2="594.68" xlink:href="#linear-gradient-10"/><mask id="mask-3" x="714.62" y="138.98" width="965.28" height="1023.24" maskUnits="userSpaceOnUse"><rect class="cls-3" x="714.62" y="138.98" width="965.28" height="1023.24"/></mask><linearGradient id="linear-gradient-12" x1="714.62" y1="650.6" x2="1679.91" y2="650.6" xlink:href="#linear-gradient-10"/><clipPath id="clip-path-2"><path class="cls-8" d="M652.8,661.91l212,212,31,31-31,31-212,212a42.31,42.31,0,0,1-31,12.83H172.15a43.88,43.88,0,0,1-43.8-43.79v-424a43.88,43.88,0,0,1,43.8-43.79H621.83a42.3,42.3,0,0,1,31,12.82"/></clipPath><linearGradient id="linear-gradient-13" x1="396.29" y1="1288.43" x2="599.17" y2="616.36" gradientUnits="userSpaceOnUse"><stop offset="0" stop-color="#3c4a59"/><stop offset="1" stop-color="#8c9aa9"/></linearGradient><mask id="mask-4" x="490.7" y="649.08" width="405.09" height="392.78" maskUnits="userSpaceOnUse"><rect class="cls-4" x="490.7" y="649.08" width="405.09" height="392.78"/></mask><mask id="mask-5" x="128.35" y="649.08" width="767.43" height="255.81" maskUnits="userSpaceOnUse"><rect class="cls-5" x="128.35" y="649.08" width="767.43" height="255.81"/></mask><mask id="mask-6" x="128.35" y="914.54" width="529.14" height="246.16" maskUnits="userSpaceOnUse"><rect class="cls-6" x="128.35" y="914.54" width="529.14" height="246.16"/></mask></defs><path class="cls-9" d="M1124.49,139h-424a43.89,43.89,0,0,0-43.8,43.8V498.27a42.31,42.31,0,0,0,12.83,31l346.2,346.2a43.88,43.88,0,0,1,0,61.94l-346.2,346.2a42.31,42.31,0,0,0-12.83,31V1630a43.89,43.89,0,0,0,43.8,43.8h424a43.88,43.88,0,0,0,43.8-43.8V1206a43.88,43.88,0,0,1,43.8-43.8h424a43.88,43.88,0,0,0,43.8-43.8v-424a43.89,43.89,0,0,0-43.8-43.8h-424a43.88,43.88,0,0,1-43.8-43.79v-424a43.88,43.88,0,0,0-43.8-43.8"/><g class="cls-10"><rect class="cls-11" x="656.67" y="138.98" width="1023.24" height="1534.86"/></g><g class="cls-12"><path class="cls-13" d="M704,1249.12l-34.46,34.46a42.31,42.31,0,0,0-12.83,31V1630a43.89,43.89,0,0,0,43.8,43.8h424a43.88,43.88,0,0,0,43.8-43.8V1437.31c-197.68-58-348.89-122.67-464.33-188.19"/></g><g class="cls-14"><path class="cls-15" d="M1124.49,139h-424a43.89,43.89,0,0,0-43.8,43.8V479.56c451,136.39,822.94,404.66,1023.24,570.81v-356a43.89,43.89,0,0,0-43.8-43.8h-424a43.88,43.88,0,0,1-43.8-43.79v-424a43.88,43.88,0,0,0-43.8-43.8"/></g><g class="cls-16"><path class="cls-17" d="M1623,1162.22h13.11a43.88,43.88,0,0,0,43.8-43.8v-424a43.89,43.89,0,0,0-43.8-43.8H1382.8c102.77,138.07,189,306.64,240.2,511.62M1124.49,139H714.62c127.88,54.12,294.92,142.66,453.67,280.84v-237A43.88,43.88,0,0,0,1124.49,139Z"/></g><g class="cls-18"><rect class="cls-19" x="128.35" y="649.09" width="767.43" height="511.62"/></g><g class="cls-20"><path class="cls-21" d="M652.8,661.91l212,212,31,31-31,31-106,106h0S705,815.42,490.7,649.09H621.83a42.3,42.3,0,0,1,31,12.82"/></g><g class="cls-22"><path class="cls-21" d="M652.8,661.91l212,212,31,31s-375.07-183.12-767.43-106v-106a43.88,43.88,0,0,1,43.8-43.79H621.83a42.3,42.3,0,0,1,31,12.82"/></g><g class="cls-23"><path class="cls-24" d="M657.49,1143.18l-4.69,4.69a42.31,42.31,0,0,1-31,12.83H172.15a43.88,43.88,0,0,1-43.8-43.79V914.54c116.3,68.85,326.38,181.26,529.14,228.64"/></g></svg>