<svg id="Layer_1" data-name="Layer 1" xmlns="http://www.w3.org/2000/svg" xmlns:xlink="http://www.w3.org/1999/xlink" viewBox="0 0 1642.67 1626.67"><defs><style>.cls-1{fill:url(#linear-gradient);}.cls-2{fill:url(#linear-gradient-2);}.cls-3{fill:url(#linear-gradient-3);}.cls-4{fill:url(#linear-gradient-4);}.cls-5{fill:url(#linear-gradient-5);}.cls-6{fill:url(#linear-gradient-6);}.cls-7,.cls-9{fill:url(#linear-gradient-7);}.cls-7,.cls-8{clip-rule:evenodd;}.cls-8{fill:none;}.cls-13,.cls-15,.cls-17,.cls-21,.cls-24,.cls-9{fill-rule:evenodd;}.cls-10{clip-path:url(#clip-path);}.cls-11{fill:url(#linear-gradient-9);}.cls-12{mask:url(#mask);}.cls-13{fill:url(#linear-gradient-10);}.cls-14{mask:url(#mask-2);}.cls-15{fill:url(#linear-gradient-11);}.cls-16{mask:url(#mask-3);}.cls-17{fill:url(#linear-gradient-12);}.cls-18{clip-path:url(#clip-path-2);}.cls-19{fill:url(#linear-gradient-13);}.cls-20{mask:url(#mask-4);}.cls-21{fill:#acbac9;}.cls-22{mask:url(#mask-5);}.cls-23{mask:url(#mask-6);}.cls-24{fill:#1c2a39;}</style><linearGradient id="linear-gradient" x1="1228.22" y1="2944.09" x2="1485.27" y2="1884.11" gradientTransform="translate(-536.79 -1006.74)" gradientUnits="userSpaceOnUse"><stop offset="0" stop-color="#fff"/><stop offset="1"/></linearGradient><linearGradient id="linear-gradient-2" x1="2184.98" y1="628.81" x2="1445.65" y2="1909.29" gradientTransform="translate(-536.79 -1105.88)" xlink:href="#linear-gradient"/><linearGradient id="linear-gradient-3" x1="2243.88" y1="590.51" x2="1405.32" y2="2043.02" gradientTransform="translate(-527.57 -1088.09)" xlink:href="#linear-gradient"/><linearGradient id="linear-gradient-4" x1="1591.08" y1="510.89" x2="1053.97" y2="2153.72" gradientTransform="translate(-560.53 -1106.99)" xlink:href="#linear-gradient"/><linearGradient id="linear-gradient-5" x1="1377.77" y1="1093.4" x2="957.48" y2="1976.66" gradientTransform="translate(-618.14 -1128.77)" xlink:href="#linear-gradient"/><linearGradient id="linear-gradient-6" x1="511.62" y1="2859.69" x2="1008.3" y2="1841.63" gradientTransform="translate(-618.14 -1088.09)" xlink:href="#linear-gradient"/><linearGradient id="linear-gradient-7" x1="609.94" y1="792.97" x2="1550.86" y2="792.97" gradientUnits="userSpaceOnUse"><stop offset="0" stop-color="#f62c84"/><stop offset="0.23" stop-color="#e1309c"/><stop offset="0.72" stop-color="#ab38d9"/><stop offset="1" stop-color="#8a3eff"/></linearGradient><clipPath id="clip-path"><path class="cls-7" d="M1040.13,87.28H650.21a40.35,40.35,0,0,0-40.27,40.27V417.67a38.86,38.86,0,0,0,11.8,28.47L940.09,764.5a40.35,40.35,0,0,1,0,57L621.74,1139.8a38.89,38.89,0,0,0-11.8,28.48v290.11a40.36,40.36,0,0,0,40.27,40.28h389.92a40.36,40.36,0,0,0,40.27-40.28V1068.48a40.36,40.36,0,0,1,40.28-40.28h389.91a40.35,40.35,0,0,0,40.27-40.27V598a40.36,40.36,0,0,0-40.27-40.28H1120.67a40.35,40.35,0,0,1-40.27-40.27V127.55a40.35,40.35,0,0,0-40.27-40.27"/></clipPath><linearGradient id="linear-gradient-9" x1="471.86" y1="1530.45" x2="1515.83" y2="265.29" xlink:href="#linear-gradient-7"/><mask id="mask" x="609.94" y="1108.11" width="470.46" height="390.56" maskUnits="userSpaceOnUse"><rect class="cls-1" x="609.94" y="1108.11" width="470.46" height="390.56"/></mask><linearGradient id="linear-gradient-10" x1="609.94" y1="1303.39" x2="1080.4" y2="1303.39" gradientUnits="userSpaceOnUse"><stop offset="0" stop-color="#2de4bf"/><stop offset="0.35" stop-color="#2fccb0"/><stop offset="1" stop-color="#339790"/></linearGradient><mask id="mask-2" x="609.94" y="87.28" width="940.92" height="838.07" maskUnits="userSpaceOnUse"><rect class="cls-2" x="609.94" y="87.28" width="940.92" height="838.07"/></mask><linearGradient id="linear-gradient-11" x1="609.94" y1="506.32" x2="1550.86" y2="506.32" xlink:href="#linear-gradient-10"/><mask id="mask-3" x="663.23" y="87.28" width="887.63" height="940.92" maskUnits="userSpaceOnUse"><rect class="cls-3" x="663.23" y="87.28" width="887.63" height="940.92"/></mask><linearGradient id="linear-gradient-12" x1="663.23" y1="557.74" x2="1550.86" y2="557.74" xlink:href="#linear-gradient-10"/><clipPath id="clip-path-2"><path class="cls-8" d="M570.78,527.65l195,195,28.48,28.48-28.48,28.48-195,194.95a38.88,38.88,0,0,1-28.48,11.8H128.8a40.35,40.35,0,0,1-40.28-40.27V556.13a40.35,40.35,0,0,1,40.28-40.27H542.3a38.91,38.91,0,0,1,28.48,11.79"/></clipPath><linearGradient id="linear-gradient-13" x1="334.91" y1="1103.77" x2="521.46" y2="485.77" gradientUnits="userSpaceOnUse"><stop offset="0" stop-color="#3c4a59"/><stop offset="1" stop-color="#8c9aa9"/></linearGradient><mask id="mask-4" x="421.71" y="515.86" width="372.5" height="361.19" maskUnits="userSpaceOnUse"><rect class="cls-4" x="421.71" y="515.86" width="372.5" height="361.19"/></mask><mask id="mask-5" x="88.52" y="515.86" width="705.69" height="235.23" maskUnits="userSpaceOnUse"><rect class="cls-5" x="88.52" y="515.86" width="705.69" height="235.23"/></mask><mask id="mask-6" x="88.52" y="759.96" width="486.57" height="226.36" maskUnits="userSpaceOnUse"><rect class="cls-6" x="88.52" y="759.96" width="486.57" height="226.36"/></mask></defs><path class="cls-9" d="M1040.13,87.28H650.21a40.35,40.35,0,0,0-40.27,40.27V417.67a38.86,38.86,0,0,0,11.8,28.47L940.09,764.5a40.35,40.35,0,0,1,0,57L621.74,1139.8a38.89,38.89,0,0,0-11.8,28.48v290.11a40.36,40.36,0,0,0,40.27,40.28h389.92a40.36,40.36,0,0,0,40.27-40.28V1068.48a40.36,40.36,0,0,1,40.28-40.28h389.91a40.35,40.35,0,0,0,40.27-40.27V598a40.36,40.36,0,0,0-40.27-40.28H1120.67a40.35,40.35,0,0,1-40.27-40.27V127.55a40.35,40.35,0,0,0-40.27-40.27"/><g class="cls-10"><rect class="cls-11" x="609.94" y="87.28" width="940.92" height="1411.39"/></g><g class="cls-12"><path class="cls-13" d="M653.43,1108.11l-31.69,31.69a38.89,38.89,0,0,0-11.8,28.48v290.11a40.36,40.36,0,0,0,40.27,40.28h389.92a40.36,40.36,0,0,0,40.27-40.28V1281.16c-181.78-53.33-320.82-112.79-427-173.05"/></g><g class="cls-14"><path class="cls-15" d="M1040.13,87.28H650.21a40.35,40.35,0,0,0-40.27,40.27V400.46c414.71,125.42,756.74,372.11,940.92,524.89V598a40.36,40.36,0,0,0-40.27-40.28H1120.67a40.35,40.35,0,0,1-40.27-40.27V127.55a40.35,40.35,0,0,0-40.27-40.27"/></g><g class="cls-16"><path class="cls-17" d="M1498.54,1028.2h12a40.35,40.35,0,0,0,40.27-40.27V598a40.36,40.36,0,0,0-40.27-40.28H1277.66c94.5,127,173.81,282,220.88,470.46M1040.13,87.28H663.23C780.82,137,934.43,218.46,1080.4,345.52v-218A40.35,40.35,0,0,0,1040.13,87.28Z"/></g><g class="cls-18"><rect class="cls-19" x="88.52" y="515.86" width="705.69" height="470.46"/></g><g class="cls-20"><path class="cls-21" d="M570.78,527.65l195,195,28.48,28.48-28.48,28.48L668.26,877h0S618.82,668.81,421.71,515.86H542.3a38.91,38.91,0,0,1,28.48,11.79"/></g><g class="cls-22"><path class="cls-21" d="M570.78,527.65l195,195,28.48,28.48S449.31,582.7,88.52,653.58V556.13a40.35,40.35,0,0,1,40.28-40.27H542.3a38.91,38.91,0,0,1,28.48,11.79"/></g><g class="cls-23"><path class="cls-24" d="M575.09,970.21l-4.31,4.31a38.88,38.88,0,0,1-28.48,11.8H128.8a40.35,40.35,0,0,1-40.28-40.27V760c106.94,63.31,300.12,166.68,486.57,210.25"/></g></svg>